HIERARCHY
ROOT Hips
{
	OFFSET 0.000000 0.000000 0.000000
	CHANNELS 6 Xposition Yposition Zposition Xrotation Yrotation Zrotation
	JOINT LeftUpLeg_virtual
	{
		OFFSET 0.000000 0.000000 0.000000
		CHANNELS 3 Xrotation Yrotation Zrotation
		JOINT LeftUpLeg
		{
			OFFSET 15.427100 -6.655098 0.678600
			CHANNELS 3 Xrotation Yrotation Zrotation
			JOINT LeftLeg
			{
				OFFSET 4.081073 -39.591068 13.024000
				CHANNELS 3 Xrotation Yrotation Zrotation
				JOINT LeftFoot
				{
					OFFSET -4.081074 -37.707932 -15.979700
					CHANNELS 3 Xrotation Yrotation Zrotation
					JOINT LeftToeBase
					{
						OFFSET 5.346399 -15.068900 20.645000
						CHANNELS 3 Xrotation Yrotation Zrotation
						JOINT LeftToe_End
						{
							OFFSET 2.754700 0.931300 11.300900
							CHANNELS 3 Xrotation Yrotation Zrotation
							End Site
							{
								OFFSET 0 0 0
							}
						}
					}
				}
			}
		}
	}
	JOINT RightUpLeg_virtual
	{
		OFFSET 0.000000 0.000000 0.000000
		CHANNELS 3 Xrotation Yrotation Zrotation
		JOINT RightUpLeg
		{
			OFFSET -15.569500 -6.655098 0.678600
			CHANNELS 3 Xrotation Yrotation Zrotation
			JOINT RightLeg
			{
				OFFSET -4.081825 -39.591045 13.023800
				CHANNELS 3 Xrotation Yrotation Zrotation
				JOINT RightFoot
				{
					OFFSET 4.081824 -37.707954 -15.979600
					CHANNELS 3 Xrotation Yrotation Zrotation
					JOINT RightToeBase
					{
						OFFSET -5.346400 -15.068900 20.645000
						CHANNELS 3 Xrotation Yrotation Zrotation
						JOINT RightToe_End
						{
							OFFSET -2.754700 0.931300 11.300900
							CHANNELS 3 Xrotation Yrotation Zrotation
							End Site
							{
								OFFSET 0 0 0
							}
						}
					}
				}
			}
		}
	}
	JOINT Spine_virtual
	{
		OFFSET 0.000000 0.000000 0.000000
		CHANNELS 3 Xrotation Yrotation Zrotation
		JOINT Spine
		{
			OFFSET -0.279200 12.230698 -2.892100
			CHANNELS 3 Xrotation Yrotation Zrotation
			JOINT Spine1
			{
				OFFSET -0.232667 10.192268 -1.242267
				CHANNELS 3 Xrotation Yrotation Zrotation
				JOINT Spine1_split
				{
					OFFSET -0.232667 10.192268 -1.242267
					CHANNELS 3 Xrotation Yrotation Zrotation
					JOINT Spine2
					{
						OFFSET -0.232667 10.192268 -1.242267
						CHANNELS 3 Xrotation Yrotation Zrotation
						JOINT Neck_virtual
						{
							OFFSET 0.000000 0.000000 0.000000
							CHANNELS 3 Xrotation Yrotation Zrotation
							JOINT Neck
							{
								OFFSET -0.418800 17.814194 8.416900
								CHANNELS 3 Xrotation Yrotation Zrotation
								JOINT Head
								{
									OFFSET 0.000000 7.031097 3.806800
									CHANNELS 3 Xrotation Yrotation Zrotation
									JOINT HeadTop_End
									{
										OFFSET 0.000000 24.646606 12.978600
										CHANNELS 3 Xrotation Yrotation Zrotation
										End Site
										{
											OFFSET 0 0 0
										}
									}
								}
							}
						}
						JOINT LeftShoulder_virtual
						{
							OFFSET 0.000000 0.000000 0.000000
							CHANNELS 3 Xrotation Yrotation Zrotation
							JOINT LeftShoulder
							{
								OFFSET 8.476499 7.247704 -3.868750
								CHANNELS 3 Xrotation Yrotation Zrotation
								JOINT LeftShoulder_split
								{
									OFFSET 8.476499 7.247704 -3.868750
									CHANNELS 3 Xrotation Yrotation Zrotation
									JOINT LeftArm
									{
										OFFSET 9.308998 -2.777710 0.208600
										CHANNELS 3 Xrotation Yrotation Zrotation
										JOINT LeftForeArm
										{
											OFFSET 29.972298 0.000000 0.000000
											CHANNELS 3 Xrotation Yrotation Zrotation
											JOINT LeftHand
											{
												OFFSET 26.026505 0.000000 0.000000
												CHANNELS 3 Xrotation Yrotation Zrotation
												End Site
												{
													OFFSET 0 0 0
												}
											}
										}
									}
								}
							}
						}
						JOINT RightShoulder_virtual
						{
							OFFSET 0.000000 0.000000 0.000000
							CHANNELS 3 Xrotation Yrotation Zrotation
							JOINT RightShoulder
							{
								OFFSET -7.570500 7.247704 -3.868750
								CHANNELS 3 Xrotation Yrotation Zrotation
								JOINT RightShoulder_split
								{
									OFFSET -7.570500 7.247704 -3.868750
									CHANNELS 3 Xrotation Yrotation Zrotation
									JOINT RightArm
									{
										OFFSET -9.308998 -2.777710 0.208500
										CHANNELS 3 Xrotation Yrotation Zrotation
										JOINT RightForeArm
										{
											OFFSET -29.972300 0.000000 0.000000
											CHANNELS 3 Xrotation Yrotation Zrotation
											JOINT RightHand
											{
												OFFSET -26.026505 0.000000 0.000000
												CHANNELS 3 Xrotation Yrotation Zrotation
												End Site
												{
													OFFSET 0 0 0
												}
											}
										}
									}
								}
							}
						}
					}
				}
			}
		}
	}
}
MOTION
Frames: 5
Frame Time: 0.03333333
-7.771235 36.318310 348.513611 0.000000 0.000000 0.000000 171.664483 -31.933726 173.986993 -89.627040 -1.502325 5.001548 81.216762 -2.483579 -0.134796 10.264087 -3.188905 -13.128120 -31.545399 5.057891 -11.686914 0.000000 0.000000 0.000000 171.539778 -31.857894 172.779293 -115.274291 14.478193 -30.413186 95.670344 2.927121 16.364469 6.833216 -18.422861 5.659658 34.160815 1.438225 2.839685 0.000000 0.000000 0.000000 170.111599 -33.951176 171.947827 16.867576 -2.027411 -8.096725 5.858076 -2.682980 -4.412861 0.428414 -1.661847 0.276536 0.000000 0.000000 0.000000 23.856688 -2.244044 1.076391 7.313349 21.831612 9.691130 -123.180699 -30.868873 -101.445009 0.000000 0.000000 0.000000 11.136020 -4.493032 -1.838106 2.892183 -8.954545 -31.783824 9.179284 -16.151736 1.415806 -40.084318 16.469724 -52.054163 28.362717 -52.253874 41.913709 0.000000 0.000000 0.000000 5.912485 -9.699146 -3.638879 -1.748568 9.670997 -4.496134 0.462510 -3.144002 4.134055 -19.369249 28.656667 47.149294 -178.985968 71.990057 166.524616 0.000000 0.000000 0.000000 
-7.712357 36.299164 348.582458 0.000000 0.000000 0.000000 171.665740 -31.831294 174.023986 -89.834801 -1.739667 4.877931 81.221625 -2.470532 -0.144792 10.415839 -3.278119 -13.378434 -31.645752 5.086620 -11.661175 0.000000 0.000000 0.000000 171.571770 -31.733571 172.867129 -115.389120 14.424279 -30.485699 95.658903 3.007438 16.351977 6.879822 -18.404573 5.567948 34.395170 1.413778 3.042739 0.000000 0.000000 0.000000 170.102036 -33.798559 171.908157 17.050558 -2.010414 -8.101020 5.975387 -2.789602 -4.500912 0.427119 -1.709296 0.283786 0.000000 0.000000 0.000000 24.147304 -2.318344 1.114922 6.788860 22.299685 10.139706 -124.772161 -29.792004 -103.253056 0.000000 0.000000 0.000000 11.275094 -4.596445 -1.859023 2.820107 -8.956138 -32.119634 9.205755 -16.400186 1.474533 -40.052513 17.638069 -51.768818 29.159140 -52.347034 42.714398 0.000000 0.000000 0.000000 5.974611 -9.858662 -3.703136 -1.962420 9.476800 -5.073166 -0.821319 -3.736112 3.854642 -21.851882 28.709317 47.738340 -179.094622 70.795881 166.847683 0.000000 0.000000 0.000000 
-7.654674 36.272205 348.631866 0.000000 0.000000 0.000000 171.659142 -31.735948 174.045350 -90.056140 -2.019415 4.708761 81.227943 -2.443055 -0.158111 10.563933 -3.358953 -13.592152 -31.752692 5.127613 -11.661562 0.000000 0.000000 0.000000 171.592766 -31.624660 172.933314 -115.497666 14.358323 -30.562948 95.642558 3.075481 16.351548 6.901392 -18.393909 5.471778 34.634895 1.389409 3.237266 0.000000 0.000000 0.000000 170.074989 -33.654162 171.827779 17.198761 -1.993366 -8.104775 6.091151 -2.917621 -4.589686 0.427398 -1.761251 0.290551 0.000000 0.000000 0.000000 24.433163 -2.412806 1.158340 6.329059 22.802566 10.533541 -125.971023 -28.919274 -104.735596 0.000000 0.000000 0.000000 11.406833 -4.727127 -1.883722 2.754387 -8.984576 -32.499208 9.268966 -16.642128 1.540992 -39.995723 18.764504 -51.442837 29.938809 -52.464609 43.483839 0.000000 0.000000 0.000000 6.014408 -10.047283 -3.769271 -2.160158 9.293605 -5.443733 -1.995795 -4.351036 3.641171 -24.050184 28.702658 48.130639 -179.156285 69.709320 167.083434 0.000000 0.000000 0.000000 
-7.598831 36.243267 348.671539 0.000000 0.000000 0.000000 171.645099 -31.648556 174.051252 -90.279931 -2.347334 4.489587 81.230982 -2.410929 -0.165011 10.723356 -3.440078 -13.779884 -31.893148 5.177043 -11.670594 0.000000 0.000000 0.000000 171.599187 -31.533050 172.973093 -115.595897 14.282136 -30.632087 95.619705 3.128457 16.357541 6.902349 -18.387817 5.385438 34.866630 1.366837 3.422081 0.000000 0.000000 0.000000 170.033694 -33.526844 171.713346 17.308886 -1.988248 -8.107642 6.207005 -3.056254 -4.669455 0.429001 -1.805729 0.298545 0.000000 0.000000 0.000000 24.715451 -2.518855 1.207850 5.942464 23.326501 10.867067 -126.823963 -28.286629 -105.904439 0.000000 0.000000 0.000000 11.534988 -4.873500 -1.904756 2.692375 -9.052214 -32.905375 9.342405 -16.868940 1.599100 -39.909236 19.783103 -51.101081 30.636288 -52.558920 44.168873 0.000000 0.000000 0.000000 6.036248 -10.253363 -3.830185 -2.340112 9.117835 -5.652315 -3.091437 -4.931976 3.526676 -25.960151 28.674849 48.332444 -179.185368 68.697285 167.240529 0.000000 0.000000 0.000000 
-7.545815 36.218540 348.702789 0.000000 0.000000 0.000000 171.623434 -31.565023 174.044490 -90.499091 -2.710668 4.228567 81.227751 -2.374739 -0.164467 10.901646 -3.523947 -13.940812 -32.062441 5.232652 -11.687401 0.000000 0.000000 0.000000 171.591318 -31.458069 172.989526 -115.683296 14.198031 -30.683730 95.587329 3.165572 16.366119 6.887938 -18.383697 5.312658 35.091258 1.347585 3.597948 0.000000 0.000000 0.000000 169.984776 -33.420679 171.577589 17.380040 -1.999365 -8.112703 6.325983 -3.190454 -4.733175 0.429856 -1.844144 0.309177 0.000000 0.000000 0.000000 24.997528 -2.624843 1.260721 5.610067 23.864288 11.137974 -127.400595 -27.901313 -106.791606 0.000000 0.000000 0.000000 11.662839 -5.018071 -1.917327 2.630306 -9.169398 -33.315105 9.426587 -17.045374 1.652637 -39.809945 20.675196 -50.760419 31.193532 -52.603583 44.735731 0.000000 0.000000 0.000000 6.049473 -10.463741 -3.879781 -2.509285 8.936455 -5.770755 -4.180082 -5.502990 3.464751 -27.619931 28.689305 48.382325 -179.205135 67.732705 167.334430 0.000000 0.000000 0.000000 
